/* XPM */
static char *basic256[] = {
/* columns rows colors chars-per-pixel */
"32 32 146 2",
"   c #08057F00",
".  c #180E7F00",
"X  c #201F7E00",
"o  c #00008200",
"O  c #00068300",
"+  c #000E8200",
"@  c #000F8300",
"#  c #0B058000",
"$  c #0E068100",
"%  c #01108400",
"&  c #0D148100",
"*  c #1A0F8000",
"=  c #12168300",
"-  c #14178400",
";  c #191A8000",
":  c #1B1B8100",
">  c #17238700",
",  c #1C268300",
"<  c #1E278500",
"1  c #22218000",
"2  c #25228200",
"3  c #252C8400",
"4  c #2A278000",
"5  c #292F8700",
"6  c #2D298400",
"7  c #2A318300",
"8  c #302D8100",
"9  c #312E8200",
"0  c #33308400",
"q  c #37348200",
"w  c #31368900",
"e  c #353A8700",
"r  c #38358300",
"t  c #3B378600",
"y  c #393F8600",
"u  c #3D3B8300",
"i  c #3E3C8400",
"p  c #403D8600",
"a  c #41418200",
"s  c #46478300",
"d  c #47468900",
"f  c #47488400",
"g  c #48498500",
"h  c #494A8600",
"j  c #4B4A8D00",
"k  c #4E4F8C00",
"l  c #4E518700",
"z  c #514C8400",
"x  c #57558700",
"c  c #52558B00",
"v  c #56518900",
"b  c #575D8D00",
"n  c #59578900",
"m  c #5E5B8200",
"M  c #5B598B00",
"N  c #5B5C8800",
"B  c #5C5D8900",
"V  c #5D5E8A00",
"C  c #5E5F8B00",
"Z  c #5F5D8F00",
"A  c #5F608C00",
"S  c #605D8400",
"D  c #62668C00",
"F  c #64618800",
"G  c #64688E00",
"H  c #68658C00",
"J  c #6A6D8700",
"K  c #6D6D8200",
"L  c #6A6A8B00",
"P  c #6B6B8C00",
"I  c #6D6D8E00",
"U  c #6E6E8F00",
"Y  c #676B9100",
"T  c #6F6F9000",
"R  c #6E728C00",
"E  c #6F738D00",
"W  c #716D8900",
"Q  c #70708500",
"!  c #72728700",
"~  c #75758A00",
"^  c #7F7D8100",
"/  c #78788D00",
"(  c #7A7A8F00",
")  c #797D8B00",
"_  c #7A7E8D00",
"`  c #7F7B8C00",
"'  c #7E7F8800",
"]  c #777B9500",
"[  c #7C7C9100",
"{  c #7D7D9200",
"}  c #7E7E9300",
"|  c #7F817E00",
" . c #7F848700",
".. c #7C808F00",
"X. c #807C8D00",
"o. c #81838000",
"O. c #83858200",
"+. c #80818A00",
"@. c #82838C00",
"#. c #84858E00",
"$. c #85868F00",
"%. c #83888B00",
"&. c #84898C00",
"*. c #858A8D00",
"=. c #88868A00",
"-. c #8A888C00",
";. c #8B898D00",
":. c #8C8A8E00",
">. c #8D8B8F00",
",. c #80809500",
"<. c #84809100",
"1. c #86879000",
"2. c #85899800",
"3. c #88899200",
"4. c #898A9300",
"5. c #888D9000",
"6. c #898E9100",
"7. c #8B8C9500",
"8. c #8E8C9000",
"9. c #8F8D9100",
"0. c #8C8D9600",
"q. c #8D8E9700",
"w. c #8E8F9800",
"e. c #8C909300",
"r. c #8D919400",
"t. c #8F909900",
"y. c #908E9200",
"u. c #918F9300",
"i. c #92909400",
"p. c #93919500",
"a. c #94929600",
"s. c #95939700",
"d. c #90919A00",
"f. c #91929C00",
"g. c #96949800",
"h. c #97959900",
"j. c #98969A00",
"k. c #99979B00",
"l. c #9A989C00",
"z. c #9B999D00",
"x. c #9C9A9E00",
"c. c #9D9B9F00",
"v. c #9E9CA000",
"b. c #9F9DA100",
"n. c #A19EA200",
"m. c #A29FA300",
/* pixels */
"o o o o o o o o o o o o o o o o o o o o o o o o o o o o o o o o ",
"o o o o o o o o o o o o o o o o o o o o o o o o o o o o o o o o ",
"                                                              o ",
"o o o o o o o o o o o o o o o o o o o o o o o o o o o o o o o o ",
"o o o o o o o o o o & X 8 3 &   o o o o o o o o o o o o o o   o ",
"o o o o o o   X N $.a.a.k.g.p.X.N 8 o o o o o o o o o o o o o o ",
"          ; J p.k.k.r.2./ _ r.g.r.a.~ X                   o   o ",
"o o o   c g.k.r.b 4 $   o o $ 3 M 7.r.e.x   o o o o o o o o o o ",
"o o & ! k.l.M $ O o o o o o o o o * N r.k./ & o o o o o   o   o ",
"o o [ k.3.> o   o   o o   o o O o o o 2 [ g.) X o o o o o o o o ",
"  o e Y X , 7 7 =     o   o o   O o o O + T g.$.3     o   o   o ",
"o + t I u.g.l.k.g.$.x ; o   o o o o o o o $ D a.` ; o o o o o o ",
"q ..l.l.g.1./ ) t.r.l.a.N . o o     o     o O V v.~ ; o   o   o ",
"9.k.$.f ;   o o $ 4 Y r.a...4   o o O o o o O + P l.P # o o o o ",
"0.k.2.; o o o   o o o X [ k.0.7 o o o o o o   o + E a.m 4 &   o ",
"= ] x.d.; o o o o o   o $ V x.u.u o o o O o o O y X.a.r.a.O...X ",
"o   T l.r.& o     o o o O   l l.e.7   o o o X ` g.k.k.e.g.x.l.j ",
"  o   J l.3.  o o o o   o o   l x.=.X o   h u.k.3.s R k.k.r.u   ",
"  o o # [ r.L +     o o o o o   N v.) & l k.k.V % V k.k.9.r.8 o ",
"o o o = A g.a.u.' x X   o o O o O J n.$.g.l.y o V k.k.7 ; n.f.  ",
"  O h r.l.r.a.g.g.r.a.m   o o o o % [ k.l.u O j l.k.7 o O T w.- ",
"o L k.l.E 8 l l.r.H r.r.) .   O o ; 9.l.0.; < r.k.e o o o S m.z ",
"G g.p.q   o + <.k.d 6 -.e.9.5.+.l J v.r.v.F [ x.x o # o e w.D $ ",
"u.g.e o o   o < v.u.J a.g.r.a.g.k.k.%.. ,.a.x.[ # o o O Z b.i O ",
"L l.@.  o   o O h p.k.e.n ` r.$.i.g.g.c h m.r.< # o # s  .e.8.5 ",
"  [ n.x o o o + ..g.a.r o 1 a.x.*.i.e.9...r.l.6 o & E 9.k.r.p.i ",
"o , w.k.,     T r.r.k./ o o b p.g.g.i.g.g.i.r.t.4 ` O.l.g.V 4 o ",
"  w ` r./   i u.a.a.9.` 4 o ! a.k. .s i.O.g.p.g.-.g.v.r.a o o # ",
"` 5.9.>.r.F *.k.>.) *.p...h g.g.p.i.A k.*.p.k.p.s.g.l.k O O o o ",
"J g.u.u.O.u.9.O. .N ! O.>.9.O.) S v.g.n.i r.r.g.p.v.r.4 o o o o ",
"  J u.p.O.O.a.-.O.9.>.O.O.=.^  .v.r.c.h # c s.g.r.g.x # o o # o ",
"o + _ W H a.$.K 0  .K ! ^ | O.O.k.[ t.: o $ D p.p.` @ o # # o o "
};
